<svg width="18" height="15" viewBox="0 0 18 15" fill="none" xmlns="http://www.w3.org/2000/svg">
<path d="M16.9168 0.333334H15.1112V1.44445H16.7779V13.6667H1.22234V1.44445H2.889V0.333334H1.08345C0.953581 0.335504 0.825412 0.363237 0.706264 0.414949C0.587115 0.466661 0.479322 0.541339 0.389039 0.634718C0.298756 0.728096 0.227753 0.838345 0.180086 0.959168C0.132418 1.07999 0.10902 1.20902 0.111227 1.33889V13.7722C0.10902 13.9021 0.132418 14.0311 0.180086 14.1519C0.227753 14.2728 0.298756 14.383 0.389039 14.4764C0.479322 14.5698 0.587115 14.6445 0.706264 14.6962C0.825412 14.7479 0.953581 14.7756 1.08345 14.7778H16.9168C17.0466 14.7756 17.1748 14.7479 17.294 14.6962C17.4131 14.6445 17.5209 14.5698 17.6112 14.4764C17.7015 14.383 17.7725 14.2728 17.8201 14.1519C17.8678 14.0311 17.8912 13.9021 17.889 13.7722V1.33889C17.8912 1.20902 17.8678 1.07999 17.8201 0.959168C17.7725 0.838345 17.7015 0.728096 17.6112 0.634718C17.5209 0.541339 17.4131 0.466661 17.294 0.414949C17.1748 0.363237 17.0466 0.335504 16.9168 0.333334Z" fill="black"/>
</svg>
